<svg xmlns="http://www.w3.org/2000/svg" viewBox="0 0 1200 800" width="1200" height="800"><path fill="#FFF" d="M0 0h1200v800H0z"/><g transform="translate(390.0 120.0) rotate(0.0 210.5 280.0) scale(0.8701942951632906 0.8699704831443218)"><svg width="483.8" height="643.7" viewBox="0 0 483.8 643.7"><path d="M460.8 197.5c-1.4 0-2.7-.2-4.1-.6-41-11.6-73.9-29.5-97.5-53.2-6.5-6.5-11.9-13-16.3-19.4-26.3 23.8-57 43.9-85.7 55.9-22.2 9.3-40.6 12.9-55.7 12.9-22.7 0-38.2-8-48.2-16.8-12.7-11.1-21-24.2-26.1-37.9-10.6 5.1-21.7 9.2-32.6 11.9-32.1 8-59.9 3.9-80.5-11.7-6.6-5-7.9-14.4-2.9-21s14.4-7.9 21-2.9c9.2 7 26.2 13.7 55.2 6.5 11.2-2.8 22.8-7.5 33.7-13.4-.8-14.6 1.3-28.7 4.9-40.4 7.6-24.5 21.6-40.2 37.4-42 16.1-1.8 25.4 11 28.7 16.6 11.5 19.8 2.2 46.1-25.1 70.2-4.2 3.7-8.7 7.3-13.4 10.6 3 10.6 8.7 21.6 19.4 30.9 19.8 17.2 54 6.7 72.7-1.1 27.6-11.6 57.6-31.7 82.6-55.5-3.1-8.1-4.9-15.5-6-21.8-5-29.5 3.2-56.6 20.9-68.9C354.9-1.7 369-2.2 382 5.2c12.2 7 18.5 18.9 17.6 33.5-1.4 22.2-19 46.5-34.9 64.1 4 6.4 9.2 13.1 15.9 19.8 20 20 48.4 35.3 84.5 45.5 8 2.3 12.6 10.5 10.4 18.5-2.1 6.6-8.1 10.9-14.7 10.9zM165.5 56.1c-3.6 3.2-9.9 12.8-13 28.3 12.1-12.3 16.2-23 13.6-27.4l-.6-.9zM363 30c-1.2 0-2 .5-2.8 1-5.2 3.6-12.1 17.5-8.5 39.3 0 .3.1.6.1.8 12-15.5 17.1-27.5 17.5-34.3.2-4-1-4.8-2.5-5.6-1.5-.9-2.8-1.2-3.8-1.2z" fill="#e0719e"/><path d="M24.617 523.928 310.285 238.26l95.034 95.034-285.668 285.669z" fill="#f6e049"/><path d="M119.7 624c-1.3 0-2.6-.5-3.5-1.5l-95-95c-.9-.9-1.5-2.2-1.5-3.5s.5-2.6 1.5-3.5l285.7-285.7c2-2 5.1-2 7.1 0l95 95c.9.9 1.5 2.2 1.5 3.5s-.5 2.6-1.5 3.5L123.2 622.5c-1 1-2.2 1.5-3.5 1.5zm-88-100.1 88 88 278.6-278.6-88-88z" fill="#383a48"/><circle cx="72.2" cy="571.5" fill="#e0719e" r="67.2"/><path d="M72.2 643.7c-19.3 0-37.4-7.5-51.1-21.1C7.5 609 0 590.8 0 571.5s7.5-37.4 21.1-51.1c28.2-28.1 74-28.2 102.1 0 13.6 13.6 21.1 31.8 21.1 51.1s-7.5 37.4-21.1 51.1c-13.6 13.6-31.8 21.1-51 21.1zm0-134.4c-15.9 0-31.9 6.1-44 18.2-24.3 24.3-24.3 63.7 0 88s63.7 24.3 88 0 24.3-63.7 0-88c-12.2-12.1-28.1-18.2-44-18.2z" fill="#383a48"/><path d="m310.306 238.232 37.476-37.477 95.034 95.035-37.476 37.476z" fill="#e0719e"/><path d="M405.4 338.3c-1.3 0-2.6-.5-3.5-1.5l-95-95c-2-2-2-5.1 0-7.1l37.5-37.5c.9-.9 2.2-1.5 3.5-1.5s2.6.5 3.5 1.5l95 95c2 2 2 5.1 0 7.1l-37.5 37.5c-1 1-2.3 1.5-3.5 1.5zm-88-100 88 88 30.4-30.4-88-88z" fill="#383a48"/><path d="m435.5 288.5-80.3-80.4 106.1-43.3 17.6 17.5z" fill="#e0719e"/><path d="M435.5 293.5c-1.3 0-2.6-.5-3.5-1.5l-80.4-80.4c-1.2-1.2-1.7-2.9-1.4-4.5s1.5-3 3-3.6l106.1-43.3c1.9-.8 4-.3 5.4 1.1l17.6 17.6c1.4 1.4 1.9 3.6 1.1 5.4l-43.3 106.1c-.6 1.5-2 2.7-3.6 3-.3 0-.7.1-1 .1zM364 209.9l69.7 69.7 39.2-96.1-12.9-12.9z" fill="#383a48"/><path d="m247.748 300.719 36.698-36.699 95.034 95.035-36.698 36.698z" fill="#f6e049"/><path d="M342.8 400.9c-1.3 0-2.6-.5-3.5-1.5l-95-95c-2-2-2-5.1 0-7.1l36.6-36.7c2-2 5.1-2 7.1 0l95 95c.9.9 1.5 2.2 1.5 3.5s-.5 2.6-1.5 3.5l-36.7 36.7c-.9 1.1-2.2 1.6-3.5 1.6zm-88-100.1 88 88 29.7-29.7-88-88z" fill="#383a48"/><path d="m251.5 433.1-57.3 57.3c-12.1 12.1-31.8 12.1-44 0-12.1-12.1-12.1-31.8 0-44l57.3-57.3c12.1-12.1 31.8-12.1 44 0 12.2 12.2 12.2 31.9 0 44z" fill="#e0719e"/></svg></g></svg>