<svg height="117.238" viewBox="0 0 150.357 117.238" width="150.357" xmlns="http://www.w3.org/2000/svg"><path d="m9.745 116.738c-8.421-17.671-11.214-36.83-7.865-53.948 3.88-19.841 16.097-36.889 32.679-45.601 15.647-8.221 34.42-8.311 49.281-.79 20.359-14.493 45.782-17.728 66.017-15.037l-2.637 19.825c-5.351-.712-26.766-2.682-45.962 7.833 6.527 5.68 13.858 13.536 17.247 23.459 4.759 13.935 2.934 28.539-4.763 38.113-6.801 8.461-17.47 12.337-30.053 10.916-11.455-1.294-20.259-7.467-24.792-17.381-7.05-15.421-2.094-36.53 6.148-48.562.9-1.313 1.827-2.583 2.781-3.81-7.776-1.776-16.513-.777-23.965 3.138-11.1 5.832-19.666 17.992-22.354 31.735-2.531 12.939-.296 27.679 6.292 41.506l-18.055 8.603zm75.66-74.9c-1.341 1.563-2.631 3.237-3.86 5.031-5.019 7.326-8.084 21.014-4.459 28.943 1.083 2.368 6.655 7.939 15.373 5.616 10.062-2.681 9.606-15.202 7.119-22.485-2.285-6.691-8.851-12.798-14.173-17.105z" fill="#4cfcd6"/><g fill="#333"><path d="m9.745 117.238c-.187 0-.366-.105-.452-.285-8.466-17.767-11.273-37.036-7.904-54.259 3.909-19.989 16.222-37.165 32.937-45.948 15.436-8.11 34.361-8.458 49.469-.928 25.532-18.033 54.732-16.468 66.128-14.952.131.017.25.086.331.192.081.105.116.239.099.37l-2.637 19.825c-.036.274-.286.467-.562.43-5.872-.781-26.32-2.523-45.026 7.436 8.6 7.596 14.115 15.191 16.849 23.2 4.814 14.095 2.957 28.882-4.847 38.588-6.912 8.598-17.742 12.541-30.499 11.1-11.636-1.315-20.582-7.59-25.191-17.67-7.127-15.588-2.129-36.907 6.191-49.052.746-1.088 1.522-2.164 2.316-3.206-7.646-1.553-15.931-.379-22.854 3.259-10.969 5.764-19.436 17.791-22.095 31.388-2.51 12.834-.29 27.465 6.252 41.195.119.249.013.548-.236.667l-18.055 8.603c-.069.033-.143.049-.215.049zm50.485-105.833c-8.732 0-17.549 2.081-25.438 6.226-16.45 8.644-28.57 25.561-32.421 45.255-3.3 16.868-.597 35.736 7.612 53.185l17.152-8.173c-6.468-13.792-8.641-28.462-6.117-41.365 2.716-13.888 11.381-26.181 22.612-32.082 7.365-3.869 16.224-5.031 24.309-3.183.167.038.302.159.36.32s.029.34-.076.475c-.949 1.221-1.878 2.495-2.764 3.786-8.165 11.919-13.08 32.817-6.106 48.071 4.457 9.749 13.12 15.819 24.393 17.092 12.403 1.401 22.917-2.411 29.607-10.733 7.591-9.442 9.384-23.864 4.68-37.638-2.733-8.005-8.327-15.608-17.102-23.244-.124-.107-.187-.268-.169-.431s.114-.306.257-.385c18.646-10.214 39.164-8.774 45.772-7.954l2.505-18.835c-11.648-1.481-40.228-2.738-65.166 15.014-.152.108-.35.123-.516.039-7.174-3.631-15.243-5.44-23.384-5.44zm28.179 71.072c-6.63 0-10.855-4.439-11.778-6.457-3.695-8.081-.593-21.998 4.501-29.433 1.21-1.767 2.52-3.475 3.893-5.074.176-.205.484-.233.694-.063 7.823 6.33 12.511 12 14.332 17.332 1.629 4.771 2.526 12.226-.31 17.533-1.525 2.855-3.932 4.738-7.154 5.596-1.481.395-2.876.566-4.179.566zm-2.94-39.942c-1.235 1.464-2.414 3.015-3.511 4.617-4.943 7.215-7.973 20.675-4.417 28.452 1.01 2.209 6.391 7.579 14.79 5.341 2.943-.784 5.14-2.5 6.529-5.101 2.684-5.024 1.81-12.157.245-16.739-1.729-5.064-6.191-10.487-13.636-16.57z"/><path d="m85.405 42.338c-.11 0-.22-.036-.312-.11-.216-.172-.251-.487-.078-.702.052-.065 5.299-6.554 15.987-12.935.237-.142.544-.064.686.173s.064.544-.173.686c-10.52 6.281-15.668 12.637-15.719 12.701-.099.123-.244.188-.391.188z"/><path d="m67.827 32.256c-.109 0-.219-.036-.312-.109-.216-.172-.251-.487-.079-.703.074-.093 7.496-9.34 16.114-15.452.226-.16.538-.106.697.119.16.225.106.537-.119.697-8.501 6.029-15.838 15.168-15.911 15.26-.099.124-.244.188-.391.188z"/></g></svg>